<?xml version="1.0" encoding="UTF-8" standalone="no"?>
<!-- Created with Inkscape (http://www.inkscape.org/) -->

<svg
   version="1.1"
   id="svg1"
   width="512"
   height="512"
   viewBox="0 0 512 512"
   sodipodi:docname="search.svg"
   inkscape:version="1.3.1 (9b9bdc1480, 2023-11-25, custom)"
   xmlns:inkscape="http://www.inkscape.org/namespaces/inkscape"
   xmlns:sodipodi="http://sodipodi.sourceforge.net/DTD/sodipodi-0.dtd"
   xmlns:xlink="http://www.w3.org/1999/xlink"
   xmlns="http://www.w3.org/2000/svg"
   xmlns:svg="http://www.w3.org/2000/svg">
  <defs
     id="defs1">
    <linearGradient
       id="linearGradient3"
       inkscape:collect="always">
      <stop
         style="stop-color:#ff63c1;stop-opacity:1;"
         offset="0"
         id="stop3" />
      <stop
         style="stop-color:#ff6372;stop-opacity:1;"
         offset="1"
         id="stop4" />
    </linearGradient>
    <linearGradient
       inkscape:collect="always"
       xlink:href="#linearGradient3"
       id="linearGradient4"
       x1="69.015427"
       y1="468.61023"
       x2="478.25195"
       y2="58.115204"
       gradientUnits="userSpaceOnUse" />
  </defs>
  <sodipodi:namedview
     id="namedview1"
     pagecolor="#ffffff"
     bordercolor="#000000"
     borderopacity="0.25"
     inkscape:showpageshadow="2"
     inkscape:pageopacity="0.0"
     inkscape:pagecheckerboard="0"
     inkscape:deskcolor="#d1d1d1"
     showgrid="false"
     inkscape:zoom="0.71505141"
     inkscape:cx="287.39192"
     inkscape:cy="279.00092"
     inkscape:window-width="1600"
     inkscape:window-height="831"
     inkscape:window-x="0"
     inkscape:window-y="0"
     inkscape:window-maximized="1"
     inkscape:current-layer="g1" />
  <g
     inkscape:groupmode="layer"
     inkscape:label="Image"
     id="g1"
     transform="translate(-0.34774707,-1.8629321)">
    <g
       id="g4">
      <circle
         style="opacity:1;fill:url(#linearGradient4);fill-opacity:1;stroke-width:240.374"
         id="path2"
         cx="268.70935"
         cy="267.67853"
         r="205.2413" />
      <path
         style="fill:#000000"
         d="M 0.34774707,257.86293 V 1.8629321 H 256.34775 h 256 v 255.9999979 256 h -256 H 0.34774707 Z m 176.27682293,120.5 c 7.18564,-7.7 16.71393,-17.825 21.17396,-22.5 9.0474,-9.48346 26.40665,-28.47566 31.33698,-34.2848 1.76673,-2.08163 3.18578,-4.55663 3.15343,-5.5 -0.0519,-1.51499 -0.19785,-1.491 -1.25,0.20556 -3.11579,5.02411 -38.32839,43.54826 -65.94009,72.14139 -4.81311,4.98418 -8.7511,9.45995 -8.7511,9.94616 0,1.26503 5.36308,-4.02704 20.27682,-20.00831 z m -29.08287,11.29395 c -0.94139,-0.94139 -0.0527,-2.31488 4.05,-6.25914 5.58209,-5.36655 13.6279,-14.15203 17.74507,-19.37642 1.36897,-1.73712 2.94397,-3.16247 3.5,-3.16746 0.55604,-0.005 2.13598,-1.45481 3.51098,-3.22182 1.375,-1.767 10.7125,-11.3789 20.75,-21.35978 10.0375,-9.98087 18.25,-18.88106 18.25,-19.77819 0,-0.89713 0.48214,-1.63114 1.07143,-1.63114 1.31019,0 3.92857,-2.51508 3.92857,-3.77358 0,-1.52666 3.59777,-4.28155 4.58115,-3.50789 0.50537,0.39759 -2.67059,-2.97643 -7.05769,-7.49782 -4.3871,-4.52139 -8.45718,-8.22071 -9.04463,-8.22071 -0.58745,0 -7.34963,6.4125 -15.02708,14.25 -17.04185,17.39713 -53.12829,54.47904 -59.90667,61.55925 l -4.95492,5.17555 9.40191,9.0076 c 5.17105,4.95418 9.62826,9.0076 9.90492,9.0076 0.27665,0 -0.0397,-0.54272 -0.70304,-1.20605 z m 94.8258,-88.50342 c 5.21414,-5.34021 8.54373,-8.93923 7.3991,-7.99782 -1.14463,0.94141 -2.38213,1.48567 -2.75,1.20947 -0.36787,-0.2762 -0.43012,-0.18845 -0.13834,0.195 0.29179,0.38345 -2.96015,4.20845 -7.22653,8.5 -4.26639,4.29155 -7.53373,7.80282 -7.26077,7.80282 0.27296,0 4.7624,-4.36926 9.97654,-9.70947 z m 91.98025,7.16554 c 3.575,-0.919 10.71502,-3.6439 15.8667,-6.05534 24.19434,-11.32508 41.05683,-30.65594 48.76272,-55.90073 2.50499,-8.20644 2.75266,-10.45487 2.8089,-25.5 0.0573,-15.31995 -0.14116,-17.17942 -2.7745,-26 -10.35133,-34.67263 -36.08031,-58.52946 -70.66382,-65.52203 -12.52494,-2.53246 -30.56087,-1.66495 -42,2.02016 -32.42869,10.4469 -54.37538,33.22011 -63.18898,65.5687 -1.96365,7.20719 -2.28412,10.6865 -2.20445,23.93317 0.0832,13.82745 0.38632,16.47116 2.80939,24.5 6.94163,23.001 19.70259,39.01275 41.73934,52.37221 10.2296,6.20155 20.4584,9.87958 34.8447,12.52932 5.22185,0.96179 27.69209,-0.32395 34,-1.94546 z m -28.5,-0.49068 c -22.48289,-1.63586 -41.58741,-10.67609 -58,-27.44552 -17.54371,-17.92513 -25.33851,-38.54536 -24.20062,-64.01987 0.6526,-14.60994 2.46711,-21.96364 8.63617,-35 10.6261,-22.45489 28.47436,-38.15296 53.06445,-46.67176 9.21483,-3.19232 9.98029,-3.29066 25.5,-3.27634 17.79638,0.0164 23.56967,1.11979 36.08741,6.89682 26.31272,12.14353 45.10749,35.33278 51.0251,62.95549 1.98667,9.27353 1.95628,27.98775 -0.0608,37.44917 -8.00837,37.56417 -40.66275,66.59596 -78.05169,69.39283 -2.75,0.20572 -9.05,0.0793 -14,-0.28082 z m 25,-4.85831 c 23.87437,-4.95166 45.08822,-21.44731 56.07986,-43.60708 6.7278,-13.56363 8.53172,-20.77249 9.13995,-36.52529 0.45434,-11.76721 0.23252,-14.69187 -1.70648,-22.5 -6.41029,-25.81348 -22.39409,-45.64605 -46.51333,-57.71333 -8.47424,-4.23981 -15.18732,-6.19039 -26.74259,-7.77042 -33.85621,-4.62939 -69.73813,14.92732 -85.33304,46.50904 -6.77444,13.71911 -8.72955,22.34173 -8.72955,38.5 0,20.19217 4.33592,33.91211 15.40258,48.73764 5.41489,7.25409 6.9026,8.50877 6.9026,5.82138 0,-0.79254 0.44864,-1.71826 0.99698,-2.05715 0.65132,-0.40254 0.64387,0.31258 -0.0215,2.06262 -1.19083,3.13212 -0.59352,4.07474 5.42832,8.56645 l 4.0962,3.05537 -4.25,-3.97903 c -3.90354,-3.65465 -5.70982,-8.20728 -3.25627,-8.20728 1.8734,0 0.37341,-4.05747 -3.26258,-8.8253 -4.0414,-5.29943 -10.33098,-18.03743 -11.19599,-22.6747 -0.30778,-1.65 0.28075,-0.75 1.30785,2 3.90896,10.46606 8.32273,17.70313 15.58173,25.54871 3.82973,4.1392 4.88138,6.44328 1.57526,3.45129 -1.1,-0.99549 -1.99999,-1.40273 -1.99997,-0.90499 3e-5,0.82041 2.94328,3.43404 9.97173,8.85498 l 2.52824,1.94999 -1.90499,-2.19999 c -2.59413,-2.99586 -1.53008,-2.76339 3.792,0.82844 10.44155,7.04691 23.10682,10.91945 38.19427,11.6783 13.45148,0.67656 22.02495,-0.6546 33.04727,-5.1311 26.71317,-10.84902 44.56808,-35.68331 46.0973,-64.11652 1.14496,-21.28841 -5.71747,-39.93231 -20.44446,-55.5437 -3.588,-3.80348 -6.06761,-6.91541 -5.51023,-6.91541 1.96217,0 12.32933,12.2549 16.77814,19.83324 8.56302,14.5867 12.66096,33.46326 10.48913,48.31654 -4.5474,31.09983 -27.41131,56.30936 -58.03843,63.99261 -14.45153,3.62537 -35.32023,1.671 -49.60254,-4.64532 -6.42418,-2.84108 -7.16473,-2.4373 -1.14746,0.62564 9.66259,4.91851 12.24366,11.29668 3.17641,7.84931 -1.48708,-0.56539 -2.89492,-0.83685 -3.12852,-0.60324 -0.68661,0.68661 14.7137,5.52145 20.70211,6.49931 9.30307,1.51911 21.98346,1.21277 31.5,-0.76101 z M 302.02638,291.7858 c -17.46838,-1.97548 -31.48403,-8.68331 -43.67863,-20.9044 -9.39335,-9.41376 -13.80985,-16.16221 -17.79017,-27.18355 -2.44414,-6.76771 -2.6463,-8.53354 -2.61427,-22.83492 0.032,-14.26442 0.25438,-16.13772 2.79025,-23.5 4.24318,-12.31904 8.05183,-18.11987 19.2203,-29.27383 7.09067,-7.08145 8.87017,-9.25655 5.72687,-7 -7.65278,5.49388 -16.67889,15.88434 -20.86839,24.02277 -2.15863,4.19331 -4.07948,7.4695 -4.26856,7.28043 -0.6491,-0.6491 5.84655,-12.81942 9.49435,-17.78872 9.53392,-12.98779 28.72125,-24.93347 46.30962,-28.83151 20.07024,-4.44809 42.48563,0.13911 58.78809,12.0307 2.35845,1.72034 4.06458,3.48952 3.79142,3.93152 -0.27317,0.442 1.32702,2.56426 3.55598,4.71613 7.01073,6.76829 17.08792,22.33367 18.21338,28.13266 0.18998,0.97892 0.83695,2.97494 1.4377,4.43562 2.21812,5.39316 3.30252,18.24959 2.29051,27.1559 -1.27624,11.23174 -2.52965,15.70961 -6.77003,24.18623 -14.51451,29.01483 -43.75254,45.02976 -75.62842,41.42497 z m 29.48802,-7.20152 c 11.79308,-3.77789 20.37446,-9.04199 28.89711,-17.72642 8.3309,-8.48905 14.77049,-19.42174 17.41093,-29.55908 1.944,-7.4635 1.95693,-22.25324 0.0275,-31.4255 -4.70723,-22.37736 -22.35623,-41.99291 -44.67449,-49.65235 -7.43129,-2.55036 -9.61938,-2.84973 -20.32769,-2.78114 -10.16495,0.0651 -13.22337,0.48172 -20,2.72441 -17.98108,5.95073 -32.05501,17.93449 -40.10367,34.1477 -2.51559,5.06741 -5.19307,12.10192 -5.94994,15.63225 -1.5065,7.02688 -1.96466,28.35712 -0.59085,27.50806 0.47055,-0.29082 0.66032,0.69513 0.42171,2.19098 -0.3227,2.02306 -0.17787,2.35316 0.5654,1.28865 0.59844,-0.85709 0.7867,-5.67015 0.46936,-12 -0.64944,-12.95403 1.0022,-20.90812 6.86662,-33.06891 3.26668,-6.77396 5.74613,-10.14236 12.21021,-16.58793 21.14948,-21.0889 48.59002,-25.95361 74.61116,-13.22719 4.675,2.28645 8.725,4.21224 9,4.27953 1.24727,0.30522 13.48348,13.37795 16.15125,17.25542 4.71442,6.85218 8.77638,16.3752 10.22295,23.96708 1.14061,5.98615 1.11798,8.20351 -0.15548,15.2358 -1.27355,7.0328 -1.83327,8.36044 -3.84753,9.12626 -2.65882,1.01089 -18.06999,11.54345 -20.37119,13.92243 -0.825,0.85288 -3.075,2.7322 -5,4.17627 -1.925,1.44406 -4.625,3.59054 -6,4.76994 -1.375,1.17941 -4.00289,3.36793 -5.83975,4.86338 -1.83687,1.49546 -4.84142,3.9742 -6.67679,5.50832 -6.00763,5.02156 -19.70657,13.71069 -21.61575,13.71069 -1.02725,0 -1.86772,0.37777 -1.86772,0.83948 0,1.93647 -4.97885,3.04334 -10.06955,2.23861 -2.85784,-0.45176 -6.03631,-0.60166 -7.06326,-0.33311 -1.07165,0.28024 -1.86719,-0.0331 -1.86719,-0.73534 0,-0.67682 -0.67031,-0.9664 -1.5,-0.64801 -0.825,0.31658 -1.5,0.18248 -1.5,-0.29799 0,-0.48048 -2.07773,-2.09122 -4.61717,-3.57944 -2.53944,-1.48821 -7.48944,-5.14246 -11,-8.12056 -3.51056,-2.9781 -6.38283,-5.10849 -6.38283,-4.7342 0,0.3743 -1.0125,-0.17349 -2.25,-1.2173 -2.09648,-1.76834 -2.08743,-1.71371 0.13274,0.80077 1.31051,1.48422 2.88551,2.60601 3.5,2.49284 0.6145,-0.11316 0.98897,0.40412 0.83217,1.14951 -0.32229,1.53211 1.54767,4.14474 2.96655,4.14474 0.51512,0 0.61549,-0.51953 0.22305,-1.15451 -0.44563,-0.72104 -0.27393,-0.88282 0.45729,-0.4309 0.64395,0.39798 0.92134,1.12727 0.61642,1.62064 -1.53501,2.4837 17.77555,12.90101 27.52178,14.84695 3.025,0.60397 6.4,1.30539 7.5,1.55871 5.11817,1.17867 21.2859,-0.35513 28.66665,-2.71954 z m -70.16665,-23.09891 c 0,-0.20765 -0.7875,-0.99515 -1.75,-1.75 -1.58606,-1.24387 -1.62143,-1.2085 -0.37756,0.37756 1.30637,1.66575 2.12756,2.19548 2.12756,1.37244 z m -4.58633,-6.11385 c -0.89784,-1.37028 -1.98543,-2.27326 -2.41686,-2.00662 -0.43142,0.26664 -0.78107,-0.52473 -0.77698,-1.75859 0.007,-1.99653 -5.03892,-16.22707 -5.16773,-14.57517 -0.0286,0.36752 -0.35357,1.45384 -0.72204,2.41405 -0.48263,1.2577 -0.31287,1.52515 0.60714,0.95656 0.94929,-0.5867 1.10116,-0.23503 0.59169,1.37016 -0.80619,2.54009 4.87546,15.57719 6.38268,14.64567 0.52263,-0.323 1.23289,-0.12993 1.57835,0.42904 0.34546,0.55897 0.83693,1.01631 1.09215,1.01631 0.25522,0 -0.27056,-1.12114 -1.1684,-2.49141 z m -4.79013,-5.04725 c -0.96498,-2.51469 -0.68031,-3.16355 0.49853,-1.13634 0.58369,1.00375 0.8506,2.03566 0.59313,2.29313 -0.25747,0.25747 -0.74872,-0.26309 -1.09166,-1.15679 z m 12.39417,-31.71134 c 2.59855,-10.08761 5.85712,-17.62539 10.98692,-25.41517 l 2.08435,-3.16518 -3.38888,-2.58482 c -1.86388,-1.42166 -4.1395,-2.58483 -5.05691,-2.58483 -1.98355,0 -7.75725,8.70172 -10.73846,16.18428 -1.25891,3.15972 -2.33464,8.66183 -2.65227,13.56572 l -0.53437,8.25 h 4.10241 c 3.98797,0 4.13295,-0.11856 5.19721,-4.25 z m 90.92657,-59.32248 c -3.41226,-2.54856 -7.94032,-5.24272 -6.90841,-4.11044 1.35027,1.48161 8.56414,6.55321 9.40841,6.61444 0.51935,0.0377 -0.60565,-1.08914 -2.5,-2.504 z m -77.94428,-4.97888 c 0,-0.275 -1.35,0.19811 -3,1.05136 -1.65,0.85325 -3,1.77636 -3,2.05136 0,0.275 1.35,-0.19811 3,-1.05136 1.65,-0.85325 3,-1.77636 3,-2.05136 z m 19.72917,-7.05281 c -0.33229,-0.33229 -1.1948,-0.36781 -1.91667,-0.0789 -0.79773,0.31922 -0.56078,0.55618 0.60417,0.60416 1.05416,0.0434 1.64479,-0.19293 1.3125,-0.52522 z m 5,-1 c -0.33229,-0.33229 -1.1948,-0.36781 -1.91667,-0.0789 -0.79773,0.31922 -0.56078,0.55618 0.60417,0.60416 1.05416,0.0434 1.64479,-0.19293 1.3125,-0.52522 z m 12,-1 c -0.33229,-0.33229 -1.1948,-0.36781 -1.91667,-0.0789 -0.79773,0.31922 -0.56078,0.55618 0.60417,0.60416 1.05416,0.0434 1.64479,-0.19293 1.3125,-0.52522 z m -54.22917,131.60417 c -0.99549,-1.1 -1.35998,-2 -0.80998,-2 0.55,0 1.81449,0.9 2.80998,2 0.99549,1.1 1.35998,2 0.80998,2 -0.55,0 -1.81449,-0.9 -2.80998,-2 z M 236.4267,236.2796 c 0.048,-1.16495 0.28494,-1.4019 0.60416,-0.60417 0.28887,0.72187 0.25335,1.58437 -0.0789,1.91667 -0.3323,0.33229 -0.56864,-0.25834 -0.52522,-1.3125 z m -0.82677,-5.91667 c 0.0111,-2.2 0.21589,-2.98225 0.45508,-1.73834 0.23919,1.24391 0.23011,3.04391 -0.0202,4 -0.25029,0.95609 -0.446,-0.0617 -0.4349,-2.26166 z m -1.05723,-8 c 0.0204,-1.65 0.2445,-2.20394 0.49804,-1.23097 0.25354,0.97297 0.23687,2.32297 -0.0371,3 -0.27393,0.67703 -0.48137,-0.11903 -0.46099,-1.76903 z m 0.96294,-10.5 c 0,-1.375 0.22698,-1.9375 0.50439,-1.25 0.27741,0.6875 0.27741,1.8125 0,2.5 -0.27741,0.6875 -0.50439,0.125 -0.50439,-1.25 z m 1,-6 c 0,-1.375 0.22698,-1.9375 0.50439,-1.25 0.27741,0.6875 0.27741,1.8125 0,2.5 -0.27741,0.6875 -0.50439,0.125 -0.50439,-1.25 z m 0.98268,-4 c 0,-0.825 0.38674,-2.4 0.85943,-3.5 0.54172,-1.26064 0.85943,-1.44548 0.85943,-0.5 0,0.825 -0.38674,2.4 -0.85943,3.5 -0.54172,1.26064 -0.85943,1.44548 -0.85943,0.5 z m 25.85943,86.62244 c 0,-0.20765 -0.7875,-0.99515 -1.75,-1.75 -1.58606,-1.24387 -1.62143,-1.2085 -0.37756,0.37756 1.30637,1.66575 2.12756,2.19548 2.12756,1.37244 z m -39.29668,8.79487 c 4.88831,-7.02682 7.42532,-9.37543 8.78845,-8.13581 1.10512,1.00498 0.87277,1.7442 -1.32593,4.2185 l -2.66584,3 3.17972,-2.86976 c 2.65145,-2.39298 3.0316,-3.25932 2.28821,-5.21459 -0.90414,-2.37806 0.17783,-4.06164 1.91876,-2.98568 0.48768,0.30141 1.44245,-0.12163 2.1217,-0.94008 0.98168,-1.18286 0.96952,-2.15489 -0.0593,-4.73899 -0.71186,-1.78799 -1.43886,-3.43564 -1.61557,-3.66144 -0.59758,-0.7636 -4.33354,3.20991 -4.33354,4.60909 0,1.7254 -6.90172,9.30145 -8.47354,9.30145 -0.63375,0 -2.43823,1.34225 -4.00995,2.98277 -2.78507,2.90699 -2.8113,3.03401 -1.0321,5 2.37089,2.61981 3.05456,2.54573 5.21891,-0.56546 z"
         id="path1" />
    </g>
  </g>
</svg>
